<mxfile host="Electron" agent="Mozilla/5.0 (X11; Linux x86_64) AppleWebKit/537.36 (KHTML, like Gecko) draw.io/26.1.1 Chrome/134.0.6998.205 Electron/35.3.0 Safari/537.36" version="26.1.1">
  <diagram id="prtHgNgQTEPvFCAcTncT" name="Page-1">
    <mxGraphModel dx="1419" dy="970" grid="1" gridSize="10" guides="1" tooltips="1" connect="1" arrows="1" fold="1" page="1" pageScale="1" pageWidth="827" pageHeight="1169" math="0" shadow="0">
      <root>
        <mxCell id="0" />
        <mxCell id="1" parent="0" />
        <mxCell id="ZNYp26jjRc72Ay9f9DW7-251" value="" style="group" vertex="1" connectable="0" parent="1">
          <mxGeometry x="210" y="170" width="470" height="780" as="geometry" />
        </mxCell>
        <mxCell id="ZNYp26jjRc72Ay9f9DW7-37" value="Moodle Migration M169 DJS" style="shape=table;startSize=30;container=1;collapsible=0;childLayout=tableLayout;strokeColor=default;fontSize=20;fontStyle=1;align=center;verticalAlign=middle;" vertex="1" parent="ZNYp26jjRc72Ay9f9DW7-251">
          <mxGeometry width="470" height="780" as="geometry" />
        </mxCell>
        <mxCell id="ZNYp26jjRc72Ay9f9DW7-38" value="" style="shape=tableRow;horizontal=0;startSize=0;swimlaneHead=0;swimlaneBody=0;strokeColor=inherit;top=0;left=0;bottom=0;right=0;collapsible=0;dropTarget=0;fillColor=none;points=[[0,0.5],[1,0.5]];portConstraint=eastwest;fontSize=16;" vertex="1" parent="ZNYp26jjRc72Ay9f9DW7-37">
          <mxGeometry y="30" width="470" height="30" as="geometry" />
        </mxCell>
        <mxCell id="ZNYp26jjRc72Ay9f9DW7-39" value="System" style="shape=partialRectangle;html=1;whiteSpace=wrap;connectable=0;strokeColor=inherit;overflow=hidden;fillColor=none;top=0;left=0;bottom=0;right=0;pointerEvents=1;fontSize=16;fontStyle=2" vertex="1" parent="ZNYp26jjRc72Ay9f9DW7-38">
          <mxGeometry width="157" height="30" as="geometry">
            <mxRectangle width="157" height="30" as="alternateBounds" />
          </mxGeometry>
        </mxCell>
        <mxCell id="ZNYp26jjRc72Ay9f9DW7-40" value="Script" style="shape=partialRectangle;html=1;whiteSpace=wrap;connectable=0;strokeColor=inherit;overflow=hidden;fillColor=none;top=0;left=0;bottom=0;right=0;pointerEvents=1;fontSize=16;fontStyle=2" vertex="1" parent="ZNYp26jjRc72Ay9f9DW7-38">
          <mxGeometry x="157" width="156" height="30" as="geometry">
            <mxRectangle width="156" height="30" as="alternateBounds" />
          </mxGeometry>
        </mxCell>
        <mxCell id="ZNYp26jjRc72Ay9f9DW7-41" value="Docker" style="shape=partialRectangle;html=1;whiteSpace=wrap;connectable=0;strokeColor=inherit;overflow=hidden;fillColor=none;top=0;left=0;bottom=0;right=0;pointerEvents=1;fontSize=16;fontStyle=2" vertex="1" parent="ZNYp26jjRc72Ay9f9DW7-38">
          <mxGeometry x="313" width="157" height="30" as="geometry">
            <mxRectangle width="157" height="30" as="alternateBounds" />
          </mxGeometry>
        </mxCell>
        <mxCell id="ZNYp26jjRc72Ay9f9DW7-42" value="" style="shape=tableRow;horizontal=0;startSize=0;swimlaneHead=0;swimlaneBody=0;strokeColor=inherit;top=0;left=0;bottom=0;right=0;collapsible=0;dropTarget=0;fillColor=none;points=[[0,0.5],[1,0.5]];portConstraint=eastwest;fontSize=16;" vertex="1" parent="ZNYp26jjRc72Ay9f9DW7-37">
          <mxGeometry y="60" width="470" height="700" as="geometry" />
        </mxCell>
        <mxCell id="ZNYp26jjRc72Ay9f9DW7-43" value="" style="shape=partialRectangle;html=1;whiteSpace=wrap;connectable=0;strokeColor=inherit;overflow=hidden;fillColor=none;top=0;left=0;bottom=0;right=0;pointerEvents=1;fontSize=16;" vertex="1" parent="ZNYp26jjRc72Ay9f9DW7-42">
          <mxGeometry width="157" height="700" as="geometry">
            <mxRectangle width="157" height="700" as="alternateBounds" />
          </mxGeometry>
        </mxCell>
        <mxCell id="ZNYp26jjRc72Ay9f9DW7-44" value="" style="shape=partialRectangle;html=1;whiteSpace=wrap;connectable=0;strokeColor=inherit;overflow=hidden;fillColor=none;top=0;left=0;bottom=0;right=0;pointerEvents=1;fontSize=16;" vertex="1" parent="ZNYp26jjRc72Ay9f9DW7-42">
          <mxGeometry x="157" width="156" height="700" as="geometry">
            <mxRectangle width="156" height="700" as="alternateBounds" />
          </mxGeometry>
        </mxCell>
        <mxCell id="ZNYp26jjRc72Ay9f9DW7-45" value="" style="shape=partialRectangle;html=1;whiteSpace=wrap;connectable=0;strokeColor=inherit;overflow=hidden;fillColor=none;top=0;left=0;bottom=0;right=0;pointerEvents=1;fontSize=16;" vertex="1" parent="ZNYp26jjRc72Ay9f9DW7-42">
          <mxGeometry x="313" width="157" height="700" as="geometry">
            <mxRectangle width="157" height="700" as="alternateBounds" />
          </mxGeometry>
        </mxCell>
        <mxCell id="ZNYp26jjRc72Ay9f9DW7-46" value="" style="shape=tableRow;horizontal=0;startSize=0;swimlaneHead=0;swimlaneBody=0;strokeColor=inherit;top=0;left=0;bottom=0;right=0;collapsible=0;dropTarget=0;fillColor=none;points=[[0,0.5],[1,0.5]];portConstraint=eastwest;fontSize=16;" vertex="1" parent="ZNYp26jjRc72Ay9f9DW7-37">
          <mxGeometry y="760" width="470" height="20" as="geometry" />
        </mxCell>
        <mxCell id="ZNYp26jjRc72Ay9f9DW7-47" value="JoSi" style="shape=partialRectangle;html=1;whiteSpace=wrap;connectable=0;strokeColor=inherit;overflow=hidden;fillColor=none;top=0;left=0;bottom=0;right=0;pointerEvents=1;fontSize=14;fontStyle=1" vertex="1" parent="ZNYp26jjRc72Ay9f9DW7-46">
          <mxGeometry width="157" height="20" as="geometry">
            <mxRectangle width="157" height="20" as="alternateBounds" />
          </mxGeometry>
        </mxCell>
        <mxCell id="ZNYp26jjRc72Ay9f9DW7-48" value="m169 - 31.05.2025" style="shape=partialRectangle;html=1;whiteSpace=wrap;connectable=0;strokeColor=inherit;overflow=hidden;fillColor=none;top=0;left=0;bottom=0;right=0;pointerEvents=1;fontSize=14;fontStyle=1" vertex="1" parent="ZNYp26jjRc72Ay9f9DW7-46">
          <mxGeometry x="157" width="156" height="20" as="geometry">
            <mxRectangle width="156" height="20" as="alternateBounds" />
          </mxGeometry>
        </mxCell>
        <mxCell id="ZNYp26jjRc72Ay9f9DW7-49" value="Seite 1/4" style="shape=partialRectangle;html=1;whiteSpace=wrap;connectable=0;strokeColor=inherit;overflow=hidden;fillColor=none;top=0;left=0;bottom=0;right=0;pointerEvents=1;fontSize=14;fontStyle=1" vertex="1" parent="ZNYp26jjRc72Ay9f9DW7-46">
          <mxGeometry x="313" width="157" height="20" as="geometry">
            <mxRectangle width="157" height="20" as="alternateBounds" />
          </mxGeometry>
        </mxCell>
        <mxCell id="ZNYp26jjRc72Ay9f9DW7-52" style="edgeStyle=orthogonalEdgeStyle;rounded=0;orthogonalLoop=1;jettySize=auto;html=1;" edge="1" parent="ZNYp26jjRc72Ay9f9DW7-251" source="ZNYp26jjRc72Ay9f9DW7-50" target="ZNYp26jjRc72Ay9f9DW7-51">
          <mxGeometry relative="1" as="geometry" />
        </mxCell>
        <mxCell id="ZNYp26jjRc72Ay9f9DW7-50" value="Start" style="rounded=1;whiteSpace=wrap;html=1;" vertex="1" parent="ZNYp26jjRc72Ay9f9DW7-251">
          <mxGeometry x="170" y="80" width="130" height="50" as="geometry" />
        </mxCell>
        <mxCell id="ZNYp26jjRc72Ay9f9DW7-239" style="edgeStyle=orthogonalEdgeStyle;rounded=0;orthogonalLoop=1;jettySize=auto;html=1;entryX=0.5;entryY=0;entryDx=0;entryDy=0;" edge="1" parent="ZNYp26jjRc72Ay9f9DW7-251" source="ZNYp26jjRc72Ay9f9DW7-51" target="ZNYp26jjRc72Ay9f9DW7-53">
          <mxGeometry relative="1" as="geometry" />
        </mxCell>
        <mxCell id="ZNYp26jjRc72Ay9f9DW7-51" value="Loading Variables and &lt;code data-end=&quot;272&quot; data-start=&quot;266&quot;&gt;.env&lt;/code&gt; File" style="rounded=0;whiteSpace=wrap;html=1;" vertex="1" parent="ZNYp26jjRc72Ay9f9DW7-251">
          <mxGeometry x="170" y="150" width="130" height="40" as="geometry" />
        </mxCell>
        <mxCell id="ZNYp26jjRc72Ay9f9DW7-66" style="edgeStyle=orthogonalEdgeStyle;rounded=0;orthogonalLoop=1;jettySize=auto;html=1;entryX=0.5;entryY=1;entryDx=0;entryDy=0;" edge="1" parent="ZNYp26jjRc72Ay9f9DW7-251" source="ZNYp26jjRc72Ay9f9DW7-53" target="ZNYp26jjRc72Ay9f9DW7-65">
          <mxGeometry relative="1" as="geometry" />
        </mxCell>
        <mxCell id="ZNYp26jjRc72Ay9f9DW7-68" value="No" style="edgeLabel;html=1;align=center;verticalAlign=middle;resizable=0;points=[];" vertex="1" connectable="0" parent="ZNYp26jjRc72Ay9f9DW7-66">
          <mxGeometry x="-0.3517" y="-2" relative="1" as="geometry">
            <mxPoint as="offset" />
          </mxGeometry>
        </mxCell>
        <mxCell id="ZNYp26jjRc72Ay9f9DW7-71" style="edgeStyle=orthogonalEdgeStyle;rounded=0;orthogonalLoop=1;jettySize=auto;html=1;" edge="1" parent="ZNYp26jjRc72Ay9f9DW7-251" source="ZNYp26jjRc72Ay9f9DW7-53" target="ZNYp26jjRc72Ay9f9DW7-70">
          <mxGeometry relative="1" as="geometry" />
        </mxCell>
        <mxCell id="ZNYp26jjRc72Ay9f9DW7-74" value="Yes" style="edgeLabel;html=1;align=center;verticalAlign=middle;resizable=0;points=[];" vertex="1" connectable="0" parent="ZNYp26jjRc72Ay9f9DW7-71">
          <mxGeometry x="0.2" relative="1" as="geometry">
            <mxPoint as="offset" />
          </mxGeometry>
        </mxCell>
        <mxCell id="ZNYp26jjRc72Ay9f9DW7-53" value="Running as root?" style="rhombus;whiteSpace=wrap;html=1;" vertex="1" parent="ZNYp26jjRc72Ay9f9DW7-251">
          <mxGeometry x="170" y="210" width="130" height="60" as="geometry" />
        </mxCell>
        <mxCell id="ZNYp26jjRc72Ay9f9DW7-67" style="edgeStyle=orthogonalEdgeStyle;rounded=0;orthogonalLoop=1;jettySize=auto;html=1;entryX=0;entryY=0.5;entryDx=0;entryDy=0;" edge="1" parent="ZNYp26jjRc72Ay9f9DW7-251" source="ZNYp26jjRc72Ay9f9DW7-65" target="ZNYp26jjRc72Ay9f9DW7-50">
          <mxGeometry relative="1" as="geometry">
            <Array as="points">
              <mxPoint x="80" y="105" />
            </Array>
          </mxGeometry>
        </mxCell>
        <mxCell id="ZNYp26jjRc72Ay9f9DW7-65" value="Restarting with sudo privileges" style="rounded=0;whiteSpace=wrap;html=1;" vertex="1" parent="ZNYp26jjRc72Ay9f9DW7-251">
          <mxGeometry x="14" y="150" width="130" height="40" as="geometry" />
        </mxCell>
        <mxCell id="ZNYp26jjRc72Ay9f9DW7-240" style="edgeStyle=orthogonalEdgeStyle;rounded=0;orthogonalLoop=1;jettySize=auto;html=1;entryX=0.5;entryY=0;entryDx=0;entryDy=0;" edge="1" parent="ZNYp26jjRc72Ay9f9DW7-251" source="ZNYp26jjRc72Ay9f9DW7-70" target="ZNYp26jjRc72Ay9f9DW7-72">
          <mxGeometry relative="1" as="geometry" />
        </mxCell>
        <mxCell id="ZNYp26jjRc72Ay9f9DW7-70" value="Creating Log Directory and Log File" style="rounded=0;whiteSpace=wrap;html=1;" vertex="1" parent="ZNYp26jjRc72Ay9f9DW7-251">
          <mxGeometry x="170" y="300" width="130" height="40" as="geometry" />
        </mxCell>
        <mxCell id="ZNYp26jjRc72Ay9f9DW7-77" style="edgeStyle=orthogonalEdgeStyle;rounded=0;orthogonalLoop=1;jettySize=auto;html=1;" edge="1" parent="ZNYp26jjRc72Ay9f9DW7-251" source="ZNYp26jjRc72Ay9f9DW7-72" target="ZNYp26jjRc72Ay9f9DW7-76">
          <mxGeometry relative="1" as="geometry">
            <Array as="points">
              <mxPoint x="80" y="390" />
            </Array>
          </mxGeometry>
        </mxCell>
        <mxCell id="ZNYp26jjRc72Ay9f9DW7-78" value="Yes" style="edgeLabel;html=1;align=center;verticalAlign=middle;resizable=0;points=[];" vertex="1" connectable="0" parent="ZNYp26jjRc72Ay9f9DW7-77">
          <mxGeometry x="0.52" y="-2" relative="1" as="geometry">
            <mxPoint x="1" as="offset" />
          </mxGeometry>
        </mxCell>
        <mxCell id="ZNYp26jjRc72Ay9f9DW7-81" style="edgeStyle=orthogonalEdgeStyle;rounded=0;orthogonalLoop=1;jettySize=auto;html=1;" edge="1" parent="ZNYp26jjRc72Ay9f9DW7-251" source="ZNYp26jjRc72Ay9f9DW7-72" target="ZNYp26jjRc72Ay9f9DW7-80">
          <mxGeometry relative="1" as="geometry">
            <Array as="points">
              <mxPoint x="300" y="390" />
              <mxPoint x="300" y="520" />
            </Array>
          </mxGeometry>
        </mxCell>
        <mxCell id="ZNYp26jjRc72Ay9f9DW7-83" value="No" style="edgeLabel;html=1;align=center;verticalAlign=middle;resizable=0;points=[];" vertex="1" connectable="0" parent="ZNYp26jjRc72Ay9f9DW7-81">
          <mxGeometry x="-0.1568" relative="1" as="geometry">
            <mxPoint y="-58" as="offset" />
          </mxGeometry>
        </mxCell>
        <mxCell id="ZNYp26jjRc72Ay9f9DW7-72" value="Perform System Update?" style="rhombus;whiteSpace=wrap;html=1;" vertex="1" parent="ZNYp26jjRc72Ay9f9DW7-251">
          <mxGeometry x="170" y="360" width="130" height="60" as="geometry" />
        </mxCell>
        <mxCell id="ZNYp26jjRc72Ay9f9DW7-82" style="edgeStyle=orthogonalEdgeStyle;rounded=0;orthogonalLoop=1;jettySize=auto;html=1;" edge="1" parent="ZNYp26jjRc72Ay9f9DW7-251" source="ZNYp26jjRc72Ay9f9DW7-76" target="ZNYp26jjRc72Ay9f9DW7-80">
          <mxGeometry relative="1" as="geometry" />
        </mxCell>
        <mxCell id="ZNYp26jjRc72Ay9f9DW7-76" value="Performing System Updates" style="rounded=0;whiteSpace=wrap;html=1;" vertex="1" parent="ZNYp26jjRc72Ay9f9DW7-251">
          <mxGeometry x="14" y="440" width="130" height="40" as="geometry" />
        </mxCell>
        <mxCell id="ZNYp26jjRc72Ay9f9DW7-85" style="edgeStyle=orthogonalEdgeStyle;rounded=0;orthogonalLoop=1;jettySize=auto;html=1;" edge="1" parent="ZNYp26jjRc72Ay9f9DW7-251" source="ZNYp26jjRc72Ay9f9DW7-80" target="ZNYp26jjRc72Ay9f9DW7-84">
          <mxGeometry relative="1" as="geometry">
            <Array as="points">
              <mxPoint x="80" y="550" />
              <mxPoint x="230" y="550" />
            </Array>
          </mxGeometry>
        </mxCell>
        <mxCell id="ZNYp26jjRc72Ay9f9DW7-80" value="Installing Tools (&lt;code data-end=&quot;496&quot; data-start=&quot;491&quot;&gt;gum&lt;/code&gt;, &lt;code data-end=&quot;502&quot; data-start=&quot;498&quot;&gt;jq&lt;/code&gt;)" style="rounded=0;whiteSpace=wrap;html=1;" vertex="1" parent="ZNYp26jjRc72Ay9f9DW7-251">
          <mxGeometry x="14" y="500" width="130" height="40" as="geometry" />
        </mxCell>
        <mxCell id="ZNYp26jjRc72Ay9f9DW7-89" style="edgeStyle=orthogonalEdgeStyle;rounded=0;orthogonalLoop=1;jettySize=auto;html=1;" edge="1" parent="ZNYp26jjRc72Ay9f9DW7-251" source="ZNYp26jjRc72Ay9f9DW7-84" target="ZNYp26jjRc72Ay9f9DW7-87">
          <mxGeometry relative="1" as="geometry" />
        </mxCell>
        <mxCell id="ZNYp26jjRc72Ay9f9DW7-84" value="Creating Installation Directory in &lt;code data-end=&quot;576&quot; data-start=&quot;570&quot;&gt;/opt&lt;/code&gt;" style="rounded=0;whiteSpace=wrap;html=1;" vertex="1" parent="ZNYp26jjRc72Ay9f9DW7-251">
          <mxGeometry x="170" y="570" width="130" height="40" as="geometry" />
        </mxCell>
        <mxCell id="ZNYp26jjRc72Ay9f9DW7-90" style="edgeStyle=orthogonalEdgeStyle;rounded=0;orthogonalLoop=1;jettySize=auto;html=1;" edge="1" parent="ZNYp26jjRc72Ay9f9DW7-251" source="ZNYp26jjRc72Ay9f9DW7-87" target="ZNYp26jjRc72Ay9f9DW7-88">
          <mxGeometry relative="1" as="geometry" />
        </mxCell>
        <mxCell id="ZNYp26jjRc72Ay9f9DW7-87" value="Copying All Files into Installation Directory" style="rounded=0;whiteSpace=wrap;html=1;" vertex="1" parent="ZNYp26jjRc72Ay9f9DW7-251">
          <mxGeometry x="170" y="630" width="130" height="40" as="geometry" />
        </mxCell>
        <mxCell id="ZNYp26jjRc72Ay9f9DW7-88" value="Creating Symlink for &lt;code data-end=&quot;662&quot; data-start=&quot;656&quot;&gt;.env&lt;/code&gt; File in Target Subfolder" style="rounded=0;whiteSpace=wrap;html=1;" vertex="1" parent="ZNYp26jjRc72Ay9f9DW7-251">
          <mxGeometry x="170" y="690" width="130" height="50" as="geometry" />
        </mxCell>
        <mxCell id="ZNYp26jjRc72Ay9f9DW7-133" value="" style="endArrow=none;html=1;rounded=0;entryX=0.5;entryY=1;entryDx=0;entryDy=0;exitX=0.5;exitY=1;exitDx=0;exitDy=0;exitPerimeter=0;" edge="1" parent="ZNYp26jjRc72Ay9f9DW7-251" source="ZNYp26jjRc72Ay9f9DW7-42" target="ZNYp26jjRc72Ay9f9DW7-88">
          <mxGeometry width="50" height="50" relative="1" as="geometry">
            <mxPoint x="480" y="420" as="sourcePoint" />
            <mxPoint x="530" y="370" as="targetPoint" />
          </mxGeometry>
        </mxCell>
        <mxCell id="ZNYp26jjRc72Ay9f9DW7-252" value="" style="group" vertex="1" connectable="0" parent="1">
          <mxGeometry x="720" y="170" width="470" height="780" as="geometry" />
        </mxCell>
        <mxCell id="ZNYp26jjRc72Ay9f9DW7-91" value="Moodle Migration M169 DJS" style="shape=table;startSize=30;container=1;collapsible=0;childLayout=tableLayout;strokeColor=default;fontSize=20;fontStyle=1;align=center;verticalAlign=middle;" vertex="1" parent="ZNYp26jjRc72Ay9f9DW7-252">
          <mxGeometry width="470" height="780" as="geometry" />
        </mxCell>
        <mxCell id="ZNYp26jjRc72Ay9f9DW7-92" value="" style="shape=tableRow;horizontal=0;startSize=0;swimlaneHead=0;swimlaneBody=0;strokeColor=inherit;top=0;left=0;bottom=0;right=0;collapsible=0;dropTarget=0;fillColor=none;points=[[0,0.5],[1,0.5]];portConstraint=eastwest;fontSize=16;" vertex="1" parent="ZNYp26jjRc72Ay9f9DW7-91">
          <mxGeometry y="30" width="470" height="30" as="geometry" />
        </mxCell>
        <mxCell id="ZNYp26jjRc72Ay9f9DW7-93" value="System" style="shape=partialRectangle;html=1;whiteSpace=wrap;connectable=0;strokeColor=inherit;overflow=hidden;fillColor=none;top=0;left=0;bottom=0;right=0;pointerEvents=1;fontSize=16;fontStyle=2" vertex="1" parent="ZNYp26jjRc72Ay9f9DW7-92">
          <mxGeometry width="157" height="30" as="geometry">
            <mxRectangle width="157" height="30" as="alternateBounds" />
          </mxGeometry>
        </mxCell>
        <mxCell id="ZNYp26jjRc72Ay9f9DW7-94" value="Script" style="shape=partialRectangle;html=1;whiteSpace=wrap;connectable=0;strokeColor=inherit;overflow=hidden;fillColor=none;top=0;left=0;bottom=0;right=0;pointerEvents=1;fontSize=16;fontStyle=2" vertex="1" parent="ZNYp26jjRc72Ay9f9DW7-92">
          <mxGeometry x="157" width="156" height="30" as="geometry">
            <mxRectangle width="156" height="30" as="alternateBounds" />
          </mxGeometry>
        </mxCell>
        <mxCell id="ZNYp26jjRc72Ay9f9DW7-95" value="Docker" style="shape=partialRectangle;html=1;whiteSpace=wrap;connectable=0;strokeColor=inherit;overflow=hidden;fillColor=none;top=0;left=0;bottom=0;right=0;pointerEvents=1;fontSize=16;fontStyle=2" vertex="1" parent="ZNYp26jjRc72Ay9f9DW7-92">
          <mxGeometry x="313" width="157" height="30" as="geometry">
            <mxRectangle width="157" height="30" as="alternateBounds" />
          </mxGeometry>
        </mxCell>
        <mxCell id="ZNYp26jjRc72Ay9f9DW7-96" value="" style="shape=tableRow;horizontal=0;startSize=0;swimlaneHead=0;swimlaneBody=0;strokeColor=inherit;top=0;left=0;bottom=0;right=0;collapsible=0;dropTarget=0;fillColor=none;points=[[0,0.5],[1,0.5]];portConstraint=eastwest;fontSize=16;" vertex="1" parent="ZNYp26jjRc72Ay9f9DW7-91">
          <mxGeometry y="60" width="470" height="700" as="geometry" />
        </mxCell>
        <mxCell id="ZNYp26jjRc72Ay9f9DW7-97" value="" style="shape=partialRectangle;html=1;whiteSpace=wrap;connectable=0;strokeColor=inherit;overflow=hidden;fillColor=none;top=0;left=0;bottom=0;right=0;pointerEvents=1;fontSize=16;" vertex="1" parent="ZNYp26jjRc72Ay9f9DW7-96">
          <mxGeometry width="157" height="700" as="geometry">
            <mxRectangle width="157" height="700" as="alternateBounds" />
          </mxGeometry>
        </mxCell>
        <mxCell id="ZNYp26jjRc72Ay9f9DW7-98" value="" style="shape=partialRectangle;html=1;whiteSpace=wrap;connectable=0;strokeColor=inherit;overflow=hidden;fillColor=none;top=0;left=0;bottom=0;right=0;pointerEvents=1;fontSize=16;" vertex="1" parent="ZNYp26jjRc72Ay9f9DW7-96">
          <mxGeometry x="157" width="156" height="700" as="geometry">
            <mxRectangle width="156" height="700" as="alternateBounds" />
          </mxGeometry>
        </mxCell>
        <mxCell id="ZNYp26jjRc72Ay9f9DW7-99" value="" style="shape=partialRectangle;html=1;whiteSpace=wrap;connectable=0;strokeColor=inherit;overflow=hidden;fillColor=none;top=0;left=0;bottom=0;right=0;pointerEvents=1;fontSize=16;" vertex="1" parent="ZNYp26jjRc72Ay9f9DW7-96">
          <mxGeometry x="313" width="157" height="700" as="geometry">
            <mxRectangle width="157" height="700" as="alternateBounds" />
          </mxGeometry>
        </mxCell>
        <mxCell id="ZNYp26jjRc72Ay9f9DW7-100" value="" style="shape=tableRow;horizontal=0;startSize=0;swimlaneHead=0;swimlaneBody=0;strokeColor=inherit;top=0;left=0;bottom=0;right=0;collapsible=0;dropTarget=0;fillColor=none;points=[[0,0.5],[1,0.5]];portConstraint=eastwest;fontSize=16;" vertex="1" parent="ZNYp26jjRc72Ay9f9DW7-91">
          <mxGeometry y="760" width="470" height="20" as="geometry" />
        </mxCell>
        <mxCell id="ZNYp26jjRc72Ay9f9DW7-101" value="JoSi" style="shape=partialRectangle;html=1;whiteSpace=wrap;connectable=0;strokeColor=inherit;overflow=hidden;fillColor=none;top=0;left=0;bottom=0;right=0;pointerEvents=1;fontSize=14;fontStyle=1" vertex="1" parent="ZNYp26jjRc72Ay9f9DW7-100">
          <mxGeometry width="157" height="20" as="geometry">
            <mxRectangle width="157" height="20" as="alternateBounds" />
          </mxGeometry>
        </mxCell>
        <mxCell id="ZNYp26jjRc72Ay9f9DW7-102" value="m169 - 31.05.2025" style="shape=partialRectangle;html=1;whiteSpace=wrap;connectable=0;strokeColor=inherit;overflow=hidden;fillColor=none;top=0;left=0;bottom=0;right=0;pointerEvents=1;fontSize=14;fontStyle=1" vertex="1" parent="ZNYp26jjRc72Ay9f9DW7-100">
          <mxGeometry x="157" width="156" height="20" as="geometry">
            <mxRectangle width="156" height="20" as="alternateBounds" />
          </mxGeometry>
        </mxCell>
        <mxCell id="ZNYp26jjRc72Ay9f9DW7-103" value="Seite 2/4" style="shape=partialRectangle;html=1;whiteSpace=wrap;connectable=0;strokeColor=inherit;overflow=hidden;fillColor=none;top=0;left=0;bottom=0;right=0;pointerEvents=1;fontSize=14;fontStyle=1" vertex="1" parent="ZNYp26jjRc72Ay9f9DW7-100">
          <mxGeometry x="313" width="157" height="20" as="geometry">
            <mxRectangle width="157" height="20" as="alternateBounds" />
          </mxGeometry>
        </mxCell>
        <mxCell id="ZNYp26jjRc72Ay9f9DW7-139" style="edgeStyle=orthogonalEdgeStyle;rounded=0;orthogonalLoop=1;jettySize=auto;html=1;" edge="1" parent="ZNYp26jjRc72Ay9f9DW7-252" source="ZNYp26jjRc72Ay9f9DW7-135" target="ZNYp26jjRc72Ay9f9DW7-138">
          <mxGeometry relative="1" as="geometry" />
        </mxCell>
        <mxCell id="ZNYp26jjRc72Ay9f9DW7-135" value="Changing existing Moodle port configuration &lt;b&gt;(80 → 8080)&lt;/b&gt;" style="rounded=0;whiteSpace=wrap;html=1;" vertex="1" parent="ZNYp26jjRc72Ay9f9DW7-252">
          <mxGeometry x="170" y="80" width="130" height="60" as="geometry" />
        </mxCell>
        <mxCell id="ZNYp26jjRc72Ay9f9DW7-136" value="" style="endArrow=none;html=1;rounded=0;entryX=0.5;entryY=0;entryDx=0;entryDy=0;" edge="1" parent="ZNYp26jjRc72Ay9f9DW7-252" source="ZNYp26jjRc72Ay9f9DW7-92" target="ZNYp26jjRc72Ay9f9DW7-135">
          <mxGeometry width="50" height="50" relative="1" as="geometry">
            <mxPoint x="-270" y="808" as="sourcePoint" />
            <mxPoint x="-270" y="788" as="targetPoint" />
          </mxGeometry>
        </mxCell>
        <mxCell id="ZNYp26jjRc72Ay9f9DW7-142" style="edgeStyle=orthogonalEdgeStyle;rounded=0;orthogonalLoop=1;jettySize=auto;html=1;" edge="1" parent="ZNYp26jjRc72Ay9f9DW7-252" source="ZNYp26jjRc72Ay9f9DW7-138" target="ZNYp26jjRc72Ay9f9DW7-141">
          <mxGeometry relative="1" as="geometry">
            <Array as="points">
              <mxPoint x="235" y="220" />
              <mxPoint x="80" y="220" />
            </Array>
          </mxGeometry>
        </mxCell>
        <mxCell id="ZNYp26jjRc72Ay9f9DW7-138" value="Adding HTML warning banner to old instance" style="rounded=0;whiteSpace=wrap;html=1;" vertex="1" parent="ZNYp26jjRc72Ay9f9DW7-252">
          <mxGeometry x="170" y="160" width="130" height="50" as="geometry" />
        </mxCell>
        <mxCell id="ZNYp26jjRc72Ay9f9DW7-147" style="edgeStyle=orthogonalEdgeStyle;rounded=0;orthogonalLoop=1;jettySize=auto;html=1;" edge="1" parent="ZNYp26jjRc72Ay9f9DW7-252" source="ZNYp26jjRc72Ay9f9DW7-141">
          <mxGeometry relative="1" as="geometry">
            <mxPoint x="235" y="310" as="targetPoint" />
            <Array as="points">
              <mxPoint x="80" y="290" />
              <mxPoint x="235" y="290" />
            </Array>
          </mxGeometry>
        </mxCell>
        <mxCell id="ZNYp26jjRc72Ay9f9DW7-141" value="Restarting Apache2 service" style="rounded=0;whiteSpace=wrap;html=1;" vertex="1" parent="ZNYp26jjRc72Ay9f9DW7-252">
          <mxGeometry x="15" y="240" width="130" height="40" as="geometry" />
        </mxCell>
        <mxCell id="ZNYp26jjRc72Ay9f9DW7-151" style="edgeStyle=orthogonalEdgeStyle;rounded=0;orthogonalLoop=1;jettySize=auto;html=1;" edge="1" parent="ZNYp26jjRc72Ay9f9DW7-252" source="ZNYp26jjRc72Ay9f9DW7-144" target="ZNYp26jjRc72Ay9f9DW7-149">
          <mxGeometry relative="1" as="geometry" />
        </mxCell>
        <mxCell id="ZNYp26jjRc72Ay9f9DW7-144" value="Creating backup directory" style="rounded=0;whiteSpace=wrap;html=1;" vertex="1" parent="ZNYp26jjRc72Ay9f9DW7-252">
          <mxGeometry x="170" y="310" width="130" height="40" as="geometry" />
        </mxCell>
        <mxCell id="ZNYp26jjRc72Ay9f9DW7-152" style="edgeStyle=orthogonalEdgeStyle;rounded=0;orthogonalLoop=1;jettySize=auto;html=1;entryX=0;entryY=0.5;entryDx=0;entryDy=0;" edge="1" parent="ZNYp26jjRc72Ay9f9DW7-252" source="ZNYp26jjRc72Ay9f9DW7-146" target="ZNYp26jjRc72Ay9f9DW7-149">
          <mxGeometry relative="1" as="geometry" />
        </mxCell>
        <mxCell id="ZNYp26jjRc72Ay9f9DW7-146" value="Existing MySQL Database" style="shape=parallelogram;perimeter=parallelogramPerimeter;whiteSpace=wrap;html=1;fixedSize=1;" vertex="1" parent="ZNYp26jjRc72Ay9f9DW7-252">
          <mxGeometry x="20" y="365" width="120" height="50" as="geometry" />
        </mxCell>
        <mxCell id="ZNYp26jjRc72Ay9f9DW7-155" style="edgeStyle=orthogonalEdgeStyle;rounded=0;orthogonalLoop=1;jettySize=auto;html=1;" edge="1" parent="ZNYp26jjRc72Ay9f9DW7-252" source="ZNYp26jjRc72Ay9f9DW7-149" target="ZNYp26jjRc72Ay9f9DW7-153">
          <mxGeometry relative="1" as="geometry" />
        </mxCell>
        <mxCell id="ZNYp26jjRc72Ay9f9DW7-149" value="Performing MySQL dump" style="rounded=0;whiteSpace=wrap;html=1;" vertex="1" parent="ZNYp26jjRc72Ay9f9DW7-252">
          <mxGeometry x="170" y="370" width="130" height="40" as="geometry" />
        </mxCell>
        <mxCell id="ZNYp26jjRc72Ay9f9DW7-156" style="edgeStyle=orthogonalEdgeStyle;rounded=0;orthogonalLoop=1;jettySize=auto;html=1;" edge="1" parent="ZNYp26jjRc72Ay9f9DW7-252" source="ZNYp26jjRc72Ay9f9DW7-153" target="ZNYp26jjRc72Ay9f9DW7-154">
          <mxGeometry relative="1" as="geometry">
            <Array as="points">
              <mxPoint x="235" y="500" />
              <mxPoint x="390" y="500" />
            </Array>
          </mxGeometry>
        </mxCell>
        <mxCell id="ZNYp26jjRc72Ay9f9DW7-153" value="Changing directory to Moodle migration subfolder" style="rounded=0;whiteSpace=wrap;html=1;" vertex="1" parent="ZNYp26jjRc72Ay9f9DW7-252">
          <mxGeometry x="170" y="430" width="130" height="60" as="geometry" />
        </mxCell>
        <mxCell id="ZNYp26jjRc72Ay9f9DW7-159" style="edgeStyle=orthogonalEdgeStyle;rounded=0;orthogonalLoop=1;jettySize=auto;html=1;" edge="1" parent="ZNYp26jjRc72Ay9f9DW7-252" source="ZNYp26jjRc72Ay9f9DW7-154" target="ZNYp26jjRc72Ay9f9DW7-158">
          <mxGeometry relative="1" as="geometry" />
        </mxCell>
        <mxCell id="ZNYp26jjRc72Ay9f9DW7-154" value="&amp;nbsp;Building&amp;nbsp;&lt;b&gt;&lt;code data-end=&quot;429&quot; data-start=&quot;410&quot;&gt;moodle-custom:401&lt;/code&gt; &lt;/b&gt;based on:&lt;div&gt;&lt;code data-end=&quot;471&quot; data-start=&quot;439&quot;&gt;&lt;font style=&quot;font-size: 10px;&quot;&gt;moodlehq/moodle-php-apache:7.4&lt;/font&gt;&lt;/code&gt;&lt;/div&gt;" style="rounded=0;whiteSpace=wrap;html=1;" vertex="1" parent="ZNYp26jjRc72Ay9f9DW7-252">
          <mxGeometry x="330" y="520" width="130" height="90" as="geometry" />
        </mxCell>
        <mxCell id="ZNYp26jjRc72Ay9f9DW7-157" value="Importing MySQL Dump" style="rounded=0;whiteSpace=wrap;html=1;" vertex="1" parent="ZNYp26jjRc72Ay9f9DW7-252">
          <mxGeometry x="330" y="690" width="130" height="40" as="geometry" />
        </mxCell>
        <mxCell id="ZNYp26jjRc72Ay9f9DW7-160" style="edgeStyle=orthogonalEdgeStyle;rounded=0;orthogonalLoop=1;jettySize=auto;html=1;" edge="1" parent="ZNYp26jjRc72Ay9f9DW7-252" source="ZNYp26jjRc72Ay9f9DW7-158" target="ZNYp26jjRc72Ay9f9DW7-157">
          <mxGeometry relative="1" as="geometry" />
        </mxCell>
        <mxCell id="ZNYp26jjRc72Ay9f9DW7-158" value="Starting Doker Compose" style="rounded=0;whiteSpace=wrap;html=1;" vertex="1" parent="ZNYp26jjRc72Ay9f9DW7-252">
          <mxGeometry x="330" y="630" width="130" height="40" as="geometry" />
        </mxCell>
        <mxCell id="ZNYp26jjRc72Ay9f9DW7-161" value="" style="endArrow=none;html=1;rounded=0;entryX=0.5;entryY=1;entryDx=0;entryDy=0;exitX=0.84;exitY=0.2;exitDx=0;exitDy=0;exitPerimeter=0;" edge="1" parent="ZNYp26jjRc72Ay9f9DW7-252" source="ZNYp26jjRc72Ay9f9DW7-100" target="ZNYp26jjRc72Ay9f9DW7-157">
          <mxGeometry width="50" height="50" relative="1" as="geometry">
            <mxPoint x="-270" y="815" as="sourcePoint" />
            <mxPoint x="-270" y="805" as="targetPoint" />
          </mxGeometry>
        </mxCell>
        <mxCell id="ZNYp26jjRc72Ay9f9DW7-253" value="" style="group" vertex="1" connectable="0" parent="1">
          <mxGeometry x="1241" y="170" width="470" height="780" as="geometry" />
        </mxCell>
        <mxCell id="ZNYp26jjRc72Ay9f9DW7-162" value="Moodle Migration M169 DJS" style="shape=table;startSize=30;container=1;collapsible=0;childLayout=tableLayout;strokeColor=default;fontSize=20;fontStyle=1;align=center;verticalAlign=middle;" vertex="1" parent="ZNYp26jjRc72Ay9f9DW7-253">
          <mxGeometry width="470" height="780" as="geometry" />
        </mxCell>
        <mxCell id="ZNYp26jjRc72Ay9f9DW7-163" value="" style="shape=tableRow;horizontal=0;startSize=0;swimlaneHead=0;swimlaneBody=0;strokeColor=inherit;top=0;left=0;bottom=0;right=0;collapsible=0;dropTarget=0;fillColor=none;points=[[0,0.5],[1,0.5]];portConstraint=eastwest;fontSize=16;" vertex="1" parent="ZNYp26jjRc72Ay9f9DW7-162">
          <mxGeometry y="30" width="470" height="30" as="geometry" />
        </mxCell>
        <mxCell id="ZNYp26jjRc72Ay9f9DW7-164" value="System" style="shape=partialRectangle;html=1;whiteSpace=wrap;connectable=0;strokeColor=inherit;overflow=hidden;fillColor=none;top=0;left=0;bottom=0;right=0;pointerEvents=1;fontSize=16;fontStyle=2" vertex="1" parent="ZNYp26jjRc72Ay9f9DW7-163">
          <mxGeometry width="157" height="30" as="geometry">
            <mxRectangle width="157" height="30" as="alternateBounds" />
          </mxGeometry>
        </mxCell>
        <mxCell id="ZNYp26jjRc72Ay9f9DW7-165" value="Script" style="shape=partialRectangle;html=1;whiteSpace=wrap;connectable=0;strokeColor=inherit;overflow=hidden;fillColor=none;top=0;left=0;bottom=0;right=0;pointerEvents=1;fontSize=16;fontStyle=2" vertex="1" parent="ZNYp26jjRc72Ay9f9DW7-163">
          <mxGeometry x="157" width="156" height="30" as="geometry">
            <mxRectangle width="156" height="30" as="alternateBounds" />
          </mxGeometry>
        </mxCell>
        <mxCell id="ZNYp26jjRc72Ay9f9DW7-166" value="Docker" style="shape=partialRectangle;html=1;whiteSpace=wrap;connectable=0;strokeColor=inherit;overflow=hidden;fillColor=none;top=0;left=0;bottom=0;right=0;pointerEvents=1;fontSize=16;fontStyle=2" vertex="1" parent="ZNYp26jjRc72Ay9f9DW7-163">
          <mxGeometry x="313" width="157" height="30" as="geometry">
            <mxRectangle width="157" height="30" as="alternateBounds" />
          </mxGeometry>
        </mxCell>
        <mxCell id="ZNYp26jjRc72Ay9f9DW7-167" value="" style="shape=tableRow;horizontal=0;startSize=0;swimlaneHead=0;swimlaneBody=0;strokeColor=inherit;top=0;left=0;bottom=0;right=0;collapsible=0;dropTarget=0;fillColor=none;points=[[0,0.5],[1,0.5]];portConstraint=eastwest;fontSize=16;" vertex="1" parent="ZNYp26jjRc72Ay9f9DW7-162">
          <mxGeometry y="60" width="470" height="700" as="geometry" />
        </mxCell>
        <mxCell id="ZNYp26jjRc72Ay9f9DW7-168" value="" style="shape=partialRectangle;html=1;whiteSpace=wrap;connectable=0;strokeColor=inherit;overflow=hidden;fillColor=none;top=0;left=0;bottom=0;right=0;pointerEvents=1;fontSize=16;" vertex="1" parent="ZNYp26jjRc72Ay9f9DW7-167">
          <mxGeometry width="157" height="700" as="geometry">
            <mxRectangle width="157" height="700" as="alternateBounds" />
          </mxGeometry>
        </mxCell>
        <mxCell id="ZNYp26jjRc72Ay9f9DW7-169" value="" style="shape=partialRectangle;html=1;whiteSpace=wrap;connectable=0;strokeColor=inherit;overflow=hidden;fillColor=none;top=0;left=0;bottom=0;right=0;pointerEvents=1;fontSize=16;" vertex="1" parent="ZNYp26jjRc72Ay9f9DW7-167">
          <mxGeometry x="157" width="156" height="700" as="geometry">
            <mxRectangle width="156" height="700" as="alternateBounds" />
          </mxGeometry>
        </mxCell>
        <mxCell id="ZNYp26jjRc72Ay9f9DW7-170" value="" style="shape=partialRectangle;html=1;whiteSpace=wrap;connectable=0;strokeColor=inherit;overflow=hidden;fillColor=none;top=0;left=0;bottom=0;right=0;pointerEvents=1;fontSize=16;" vertex="1" parent="ZNYp26jjRc72Ay9f9DW7-167">
          <mxGeometry x="313" width="157" height="700" as="geometry">
            <mxRectangle width="157" height="700" as="alternateBounds" />
          </mxGeometry>
        </mxCell>
        <mxCell id="ZNYp26jjRc72Ay9f9DW7-171" value="" style="shape=tableRow;horizontal=0;startSize=0;swimlaneHead=0;swimlaneBody=0;strokeColor=inherit;top=0;left=0;bottom=0;right=0;collapsible=0;dropTarget=0;fillColor=none;points=[[0,0.5],[1,0.5]];portConstraint=eastwest;fontSize=16;" vertex="1" parent="ZNYp26jjRc72Ay9f9DW7-162">
          <mxGeometry y="760" width="470" height="20" as="geometry" />
        </mxCell>
        <mxCell id="ZNYp26jjRc72Ay9f9DW7-172" value="JoSi" style="shape=partialRectangle;html=1;whiteSpace=wrap;connectable=0;strokeColor=inherit;overflow=hidden;fillColor=none;top=0;left=0;bottom=0;right=0;pointerEvents=1;fontSize=14;fontStyle=1" vertex="1" parent="ZNYp26jjRc72Ay9f9DW7-171">
          <mxGeometry width="157" height="20" as="geometry">
            <mxRectangle width="157" height="20" as="alternateBounds" />
          </mxGeometry>
        </mxCell>
        <mxCell id="ZNYp26jjRc72Ay9f9DW7-173" value="m169 - 31.05.2025" style="shape=partialRectangle;html=1;whiteSpace=wrap;connectable=0;strokeColor=inherit;overflow=hidden;fillColor=none;top=0;left=0;bottom=0;right=0;pointerEvents=1;fontSize=14;fontStyle=1" vertex="1" parent="ZNYp26jjRc72Ay9f9DW7-171">
          <mxGeometry x="157" width="156" height="20" as="geometry">
            <mxRectangle width="156" height="20" as="alternateBounds" />
          </mxGeometry>
        </mxCell>
        <mxCell id="ZNYp26jjRc72Ay9f9DW7-174" value="Seite 3/4" style="shape=partialRectangle;html=1;whiteSpace=wrap;connectable=0;strokeColor=inherit;overflow=hidden;fillColor=none;top=0;left=0;bottom=0;right=0;pointerEvents=1;fontSize=14;fontStyle=1" vertex="1" parent="ZNYp26jjRc72Ay9f9DW7-171">
          <mxGeometry x="313" width="157" height="20" as="geometry">
            <mxRectangle width="157" height="20" as="alternateBounds" />
          </mxGeometry>
        </mxCell>
        <mxCell id="ZNYp26jjRc72Ay9f9DW7-191" style="edgeStyle=orthogonalEdgeStyle;rounded=0;orthogonalLoop=1;jettySize=auto;html=1;" edge="1" parent="ZNYp26jjRc72Ay9f9DW7-253" source="ZNYp26jjRc72Ay9f9DW7-188" target="ZNYp26jjRc72Ay9f9DW7-190">
          <mxGeometry relative="1" as="geometry" />
        </mxCell>
        <mxCell id="ZNYp26jjRc72Ay9f9DW7-188" value="Upgrading Database with &lt;b&gt;upgrade.php&lt;/b&gt;&lt;div&gt;to moodle &lt;b&gt;4.0.1&lt;/b&gt;&amp;nbsp;&lt;/div&gt;" style="rounded=0;whiteSpace=wrap;html=1;" vertex="1" parent="ZNYp26jjRc72Ay9f9DW7-253">
          <mxGeometry x="329" y="80" width="130" height="80" as="geometry" />
        </mxCell>
        <mxCell id="ZNYp26jjRc72Ay9f9DW7-189" value="" style="endArrow=none;html=1;rounded=0;entryX=0.5;entryY=0;entryDx=0;entryDy=0;align=center;" edge="1" parent="ZNYp26jjRc72Ay9f9DW7-253" target="ZNYp26jjRc72Ay9f9DW7-188">
          <mxGeometry width="50" height="50" relative="1" as="geometry">
            <mxPoint x="394" y="60" as="sourcePoint" />
            <mxPoint x="-121" y="740" as="targetPoint" />
          </mxGeometry>
        </mxCell>
        <mxCell id="ZNYp26jjRc72Ay9f9DW7-193" style="edgeStyle=orthogonalEdgeStyle;rounded=0;orthogonalLoop=1;jettySize=auto;html=1;" edge="1" parent="ZNYp26jjRc72Ay9f9DW7-253" source="ZNYp26jjRc72Ay9f9DW7-190" target="ZNYp26jjRc72Ay9f9DW7-192">
          <mxGeometry relative="1" as="geometry">
            <Array as="points">
              <mxPoint x="393" y="230" />
              <mxPoint x="239" y="230" />
            </Array>
          </mxGeometry>
        </mxCell>
        <mxCell id="ZNYp26jjRc72Ay9f9DW7-190" value="Stopping Docker Compose" style="rounded=0;whiteSpace=wrap;html=1;" vertex="1" parent="ZNYp26jjRc72Ay9f9DW7-253">
          <mxGeometry x="329" y="180" width="130" height="40" as="geometry" />
        </mxCell>
        <mxCell id="ZNYp26jjRc72Ay9f9DW7-199" style="edgeStyle=orthogonalEdgeStyle;rounded=0;orthogonalLoop=1;jettySize=auto;html=1;entryX=0.5;entryY=0;entryDx=0;entryDy=0;" edge="1" parent="ZNYp26jjRc72Ay9f9DW7-253" source="ZNYp26jjRc72Ay9f9DW7-192" target="ZNYp26jjRc72Ay9f9DW7-198">
          <mxGeometry relative="1" as="geometry">
            <Array as="points">
              <mxPoint x="235" y="330" />
              <mxPoint x="393" y="330" />
            </Array>
          </mxGeometry>
        </mxCell>
        <mxCell id="ZNYp26jjRc72Ay9f9DW7-192" value="Updating Dockerfile to &lt;font style=&quot;font-size: 10px;&quot;&gt;&lt;code style=&quot;&quot; data-end=&quot;420&quot; data-start=&quot;401&quot;&gt;MOODLE_402_STABLE&lt;/code&gt; and PHP 8.2.&lt;/font&gt;" style="rounded=0;whiteSpace=wrap;html=1;" vertex="1" parent="ZNYp26jjRc72Ay9f9DW7-253">
          <mxGeometry x="170" y="250" width="130" height="70" as="geometry" />
        </mxCell>
        <mxCell id="ZNYp26jjRc72Ay9f9DW7-201" style="edgeStyle=orthogonalEdgeStyle;rounded=0;orthogonalLoop=1;jettySize=auto;html=1;" edge="1" parent="ZNYp26jjRc72Ay9f9DW7-253" source="ZNYp26jjRc72Ay9f9DW7-194" target="ZNYp26jjRc72Ay9f9DW7-195">
          <mxGeometry relative="1" as="geometry" />
        </mxCell>
        <mxCell id="ZNYp26jjRc72Ay9f9DW7-194" value="Restarting Docker Compose" style="rounded=0;whiteSpace=wrap;html=1;" vertex="1" parent="ZNYp26jjRc72Ay9f9DW7-253">
          <mxGeometry x="329" y="440" width="130" height="40" as="geometry" />
        </mxCell>
        <mxCell id="ZNYp26jjRc72Ay9f9DW7-202" style="edgeStyle=orthogonalEdgeStyle;rounded=0;orthogonalLoop=1;jettySize=auto;html=1;" edge="1" parent="ZNYp26jjRc72Ay9f9DW7-253" source="ZNYp26jjRc72Ay9f9DW7-195" target="ZNYp26jjRc72Ay9f9DW7-196">
          <mxGeometry relative="1" as="geometry" />
        </mxCell>
        <mxCell id="ZNYp26jjRc72Ay9f9DW7-195" value="Upgrading Database with &lt;b&gt;upgrade.php&lt;/b&gt;&lt;div&gt;to moodle &lt;b&gt;4.0.2&lt;/b&gt;&amp;nbsp;&lt;/div&gt;" style="rounded=0;whiteSpace=wrap;html=1;" vertex="1" parent="ZNYp26jjRc72Ay9f9DW7-253">
          <mxGeometry x="329" y="500" width="130" height="80" as="geometry" />
        </mxCell>
        <mxCell id="ZNYp26jjRc72Ay9f9DW7-204" style="edgeStyle=orthogonalEdgeStyle;rounded=0;orthogonalLoop=1;jettySize=auto;html=1;" edge="1" parent="ZNYp26jjRc72Ay9f9DW7-253" source="ZNYp26jjRc72Ay9f9DW7-196" target="ZNYp26jjRc72Ay9f9DW7-203">
          <mxGeometry relative="1" as="geometry">
            <Array as="points">
              <mxPoint x="394" y="650" />
              <mxPoint x="235" y="650" />
            </Array>
          </mxGeometry>
        </mxCell>
        <mxCell id="ZNYp26jjRc72Ay9f9DW7-196" value="Stopping Docker Compose" style="rounded=0;whiteSpace=wrap;html=1;" vertex="1" parent="ZNYp26jjRc72Ay9f9DW7-253">
          <mxGeometry x="329" y="600" width="130" height="40" as="geometry" />
        </mxCell>
        <mxCell id="ZNYp26jjRc72Ay9f9DW7-200" style="edgeStyle=orthogonalEdgeStyle;rounded=0;orthogonalLoop=1;jettySize=auto;html=1;" edge="1" parent="ZNYp26jjRc72Ay9f9DW7-253" source="ZNYp26jjRc72Ay9f9DW7-198" target="ZNYp26jjRc72Ay9f9DW7-194">
          <mxGeometry relative="1" as="geometry" />
        </mxCell>
        <mxCell id="ZNYp26jjRc72Ay9f9DW7-198" value="&lt;div style=&quot;&quot;&gt;Rebuild the image as &lt;code data-end=&quot;478&quot; data-start=&quot;459&quot;&gt;&lt;b&gt;moodle-custom:402&lt;/b&gt;&lt;/code&gt;&lt;/div&gt;" style="rounded=0;whiteSpace=wrap;html=1;align=center;" vertex="1" parent="ZNYp26jjRc72Ay9f9DW7-253">
          <mxGeometry x="329" y="350" width="130" height="70" as="geometry" />
        </mxCell>
        <mxCell id="ZNYp26jjRc72Ay9f9DW7-203" value="&lt;div&gt;&lt;span style=&quot;background-color: transparent; color: light-dark(rgb(0, 0, 0), rgb(255, 255, 255));&quot;&gt;Updating Dockerfile to &lt;font style=&quot;font-size: 10px;&quot;&gt;MOODLE_500_STABLE&lt;/font&gt; and &lt;font style=&quot;font-size: 10px;&quot;&gt;MariaDB 10.11&lt;/font&gt; in docker-compose.yml&lt;/span&gt;&lt;/div&gt;" style="rounded=0;whiteSpace=wrap;html=1;" vertex="1" parent="ZNYp26jjRc72Ay9f9DW7-253">
          <mxGeometry x="170" y="665" width="130" height="90" as="geometry" />
        </mxCell>
        <mxCell id="ZNYp26jjRc72Ay9f9DW7-206" value="" style="endArrow=none;html=1;rounded=0;entryX=0.5;entryY=0.017;entryDx=0;entryDy=0;align=center;exitX=0.5;exitY=1;exitDx=0;exitDy=0;entryPerimeter=0;" edge="1" parent="ZNYp26jjRc72Ay9f9DW7-253" source="ZNYp26jjRc72Ay9f9DW7-203" target="ZNYp26jjRc72Ay9f9DW7-171">
          <mxGeometry width="50" height="50" relative="1" as="geometry">
            <mxPoint x="669" y="540" as="sourcePoint" />
            <mxPoint x="613" y="90" as="targetPoint" />
          </mxGeometry>
        </mxCell>
        <mxCell id="ZNYp26jjRc72Ay9f9DW7-254" value="" style="group" vertex="1" connectable="0" parent="1">
          <mxGeometry x="1760" y="170" width="470" height="780" as="geometry" />
        </mxCell>
        <mxCell id="ZNYp26jjRc72Ay9f9DW7-207" value="Moodle Migration M169 DJS" style="shape=table;startSize=30;container=1;collapsible=0;childLayout=tableLayout;strokeColor=default;fontSize=20;fontStyle=1;align=center;verticalAlign=middle;" vertex="1" parent="ZNYp26jjRc72Ay9f9DW7-254">
          <mxGeometry width="470" height="780" as="geometry" />
        </mxCell>
        <mxCell id="ZNYp26jjRc72Ay9f9DW7-208" value="" style="shape=tableRow;horizontal=0;startSize=0;swimlaneHead=0;swimlaneBody=0;strokeColor=inherit;top=0;left=0;bottom=0;right=0;collapsible=0;dropTarget=0;fillColor=none;points=[[0,0.5],[1,0.5]];portConstraint=eastwest;fontSize=16;" vertex="1" parent="ZNYp26jjRc72Ay9f9DW7-207">
          <mxGeometry y="30" width="470" height="30" as="geometry" />
        </mxCell>
        <mxCell id="ZNYp26jjRc72Ay9f9DW7-209" value="System" style="shape=partialRectangle;html=1;whiteSpace=wrap;connectable=0;strokeColor=inherit;overflow=hidden;fillColor=none;top=0;left=0;bottom=0;right=0;pointerEvents=1;fontSize=16;fontStyle=2" vertex="1" parent="ZNYp26jjRc72Ay9f9DW7-208">
          <mxGeometry width="157" height="30" as="geometry">
            <mxRectangle width="157" height="30" as="alternateBounds" />
          </mxGeometry>
        </mxCell>
        <mxCell id="ZNYp26jjRc72Ay9f9DW7-210" value="Script" style="shape=partialRectangle;html=1;whiteSpace=wrap;connectable=0;strokeColor=inherit;overflow=hidden;fillColor=none;top=0;left=0;bottom=0;right=0;pointerEvents=1;fontSize=16;fontStyle=2" vertex="1" parent="ZNYp26jjRc72Ay9f9DW7-208">
          <mxGeometry x="157" width="156" height="30" as="geometry">
            <mxRectangle width="156" height="30" as="alternateBounds" />
          </mxGeometry>
        </mxCell>
        <mxCell id="ZNYp26jjRc72Ay9f9DW7-211" value="Docker" style="shape=partialRectangle;html=1;whiteSpace=wrap;connectable=0;strokeColor=inherit;overflow=hidden;fillColor=none;top=0;left=0;bottom=0;right=0;pointerEvents=1;fontSize=16;fontStyle=2" vertex="1" parent="ZNYp26jjRc72Ay9f9DW7-208">
          <mxGeometry x="313" width="157" height="30" as="geometry">
            <mxRectangle width="157" height="30" as="alternateBounds" />
          </mxGeometry>
        </mxCell>
        <mxCell id="ZNYp26jjRc72Ay9f9DW7-212" value="" style="shape=tableRow;horizontal=0;startSize=0;swimlaneHead=0;swimlaneBody=0;strokeColor=inherit;top=0;left=0;bottom=0;right=0;collapsible=0;dropTarget=0;fillColor=none;points=[[0,0.5],[1,0.5]];portConstraint=eastwest;fontSize=16;" vertex="1" parent="ZNYp26jjRc72Ay9f9DW7-207">
          <mxGeometry y="60" width="470" height="700" as="geometry" />
        </mxCell>
        <mxCell id="ZNYp26jjRc72Ay9f9DW7-213" value="" style="shape=partialRectangle;html=1;whiteSpace=wrap;connectable=0;strokeColor=inherit;overflow=hidden;fillColor=none;top=0;left=0;bottom=0;right=0;pointerEvents=1;fontSize=16;" vertex="1" parent="ZNYp26jjRc72Ay9f9DW7-212">
          <mxGeometry width="157" height="700" as="geometry">
            <mxRectangle width="157" height="700" as="alternateBounds" />
          </mxGeometry>
        </mxCell>
        <mxCell id="ZNYp26jjRc72Ay9f9DW7-214" value="" style="shape=partialRectangle;html=1;whiteSpace=wrap;connectable=0;strokeColor=inherit;overflow=hidden;fillColor=none;top=0;left=0;bottom=0;right=0;pointerEvents=1;fontSize=16;" vertex="1" parent="ZNYp26jjRc72Ay9f9DW7-212">
          <mxGeometry x="157" width="156" height="700" as="geometry">
            <mxRectangle width="156" height="700" as="alternateBounds" />
          </mxGeometry>
        </mxCell>
        <mxCell id="ZNYp26jjRc72Ay9f9DW7-215" value="" style="shape=partialRectangle;html=1;whiteSpace=wrap;connectable=0;strokeColor=inherit;overflow=hidden;fillColor=none;top=0;left=0;bottom=0;right=0;pointerEvents=1;fontSize=16;" vertex="1" parent="ZNYp26jjRc72Ay9f9DW7-212">
          <mxGeometry x="313" width="157" height="700" as="geometry">
            <mxRectangle width="157" height="700" as="alternateBounds" />
          </mxGeometry>
        </mxCell>
        <mxCell id="ZNYp26jjRc72Ay9f9DW7-216" value="" style="shape=tableRow;horizontal=0;startSize=0;swimlaneHead=0;swimlaneBody=0;strokeColor=inherit;top=0;left=0;bottom=0;right=0;collapsible=0;dropTarget=0;fillColor=none;points=[[0,0.5],[1,0.5]];portConstraint=eastwest;fontSize=16;" vertex="1" parent="ZNYp26jjRc72Ay9f9DW7-207">
          <mxGeometry y="760" width="470" height="20" as="geometry" />
        </mxCell>
        <mxCell id="ZNYp26jjRc72Ay9f9DW7-217" value="JoSi" style="shape=partialRectangle;html=1;whiteSpace=wrap;connectable=0;strokeColor=inherit;overflow=hidden;fillColor=none;top=0;left=0;bottom=0;right=0;pointerEvents=1;fontSize=14;fontStyle=1" vertex="1" parent="ZNYp26jjRc72Ay9f9DW7-216">
          <mxGeometry width="157" height="20" as="geometry">
            <mxRectangle width="157" height="20" as="alternateBounds" />
          </mxGeometry>
        </mxCell>
        <mxCell id="ZNYp26jjRc72Ay9f9DW7-218" value="m169 - 31.05.2025" style="shape=partialRectangle;html=1;whiteSpace=wrap;connectable=0;strokeColor=inherit;overflow=hidden;fillColor=none;top=0;left=0;bottom=0;right=0;pointerEvents=1;fontSize=14;fontStyle=1" vertex="1" parent="ZNYp26jjRc72Ay9f9DW7-216">
          <mxGeometry x="157" width="156" height="20" as="geometry">
            <mxRectangle width="156" height="20" as="alternateBounds" />
          </mxGeometry>
        </mxCell>
        <mxCell id="ZNYp26jjRc72Ay9f9DW7-219" value="Seite 4/4" style="shape=partialRectangle;html=1;whiteSpace=wrap;connectable=0;strokeColor=inherit;overflow=hidden;fillColor=none;top=0;left=0;bottom=0;right=0;pointerEvents=1;fontSize=14;fontStyle=1" vertex="1" parent="ZNYp26jjRc72Ay9f9DW7-216">
          <mxGeometry x="313" width="157" height="20" as="geometry">
            <mxRectangle width="157" height="20" as="alternateBounds" />
          </mxGeometry>
        </mxCell>
        <mxCell id="ZNYp26jjRc72Ay9f9DW7-225" style="edgeStyle=orthogonalEdgeStyle;rounded=0;orthogonalLoop=1;jettySize=auto;html=1;" edge="1" parent="ZNYp26jjRc72Ay9f9DW7-254" source="ZNYp26jjRc72Ay9f9DW7-220" target="ZNYp26jjRc72Ay9f9DW7-221">
          <mxGeometry relative="1" as="geometry" />
        </mxCell>
        <mxCell id="ZNYp26jjRc72Ay9f9DW7-220" value="Restarting Doker Compose" style="rounded=0;whiteSpace=wrap;html=1;" vertex="1" parent="ZNYp26jjRc72Ay9f9DW7-254">
          <mxGeometry x="330" y="174" width="130" height="40" as="geometry" />
        </mxCell>
        <mxCell id="ZNYp26jjRc72Ay9f9DW7-229" style="edgeStyle=orthogonalEdgeStyle;rounded=0;orthogonalLoop=1;jettySize=auto;html=1;entryX=0.5;entryY=0;entryDx=0;entryDy=0;" edge="1" parent="ZNYp26jjRc72Ay9f9DW7-254" source="ZNYp26jjRc72Ay9f9DW7-221" target="ZNYp26jjRc72Ay9f9DW7-228">
          <mxGeometry relative="1" as="geometry" />
        </mxCell>
        <mxCell id="ZNYp26jjRc72Ay9f9DW7-221" value="Upgrading Database with &lt;b&gt;upgrade.php&lt;/b&gt;&lt;div&gt;to moodle 5&lt;b&gt;.0.0&lt;/b&gt;&amp;nbsp;&lt;/div&gt;" style="rounded=0;whiteSpace=wrap;html=1;" vertex="1" parent="ZNYp26jjRc72Ay9f9DW7-254">
          <mxGeometry x="330" y="234" width="130" height="80" as="geometry" />
        </mxCell>
        <mxCell id="ZNYp26jjRc72Ay9f9DW7-232" style="edgeStyle=orthogonalEdgeStyle;rounded=0;orthogonalLoop=1;jettySize=auto;html=1;" edge="1" parent="ZNYp26jjRc72Ay9f9DW7-254" source="ZNYp26jjRc72Ay9f9DW7-222" target="ZNYp26jjRc72Ay9f9DW7-231">
          <mxGeometry relative="1" as="geometry" />
        </mxCell>
        <mxCell id="ZNYp26jjRc72Ay9f9DW7-222" value="Stopping Docker Compose" style="rounded=0;whiteSpace=wrap;html=1;" vertex="1" parent="ZNYp26jjRc72Ay9f9DW7-254">
          <mxGeometry x="330" y="396" width="130" height="40" as="geometry" />
        </mxCell>
        <mxCell id="ZNYp26jjRc72Ay9f9DW7-224" style="edgeStyle=orthogonalEdgeStyle;rounded=0;orthogonalLoop=1;jettySize=auto;html=1;" edge="1" parent="ZNYp26jjRc72Ay9f9DW7-254" source="ZNYp26jjRc72Ay9f9DW7-223" target="ZNYp26jjRc72Ay9f9DW7-220">
          <mxGeometry relative="1" as="geometry" />
        </mxCell>
        <mxCell id="ZNYp26jjRc72Ay9f9DW7-223" value="&lt;div style=&quot;&quot;&gt;Rebuild the image as &lt;code data-end=&quot;478&quot; data-start=&quot;459&quot;&gt;&lt;b&gt;moodle-custom:500&lt;/b&gt;&lt;/code&gt;&lt;/div&gt;" style="rounded=0;whiteSpace=wrap;html=1;align=center;" vertex="1" parent="ZNYp26jjRc72Ay9f9DW7-254">
          <mxGeometry x="330" y="84" width="130" height="70" as="geometry" />
        </mxCell>
        <mxCell id="ZNYp26jjRc72Ay9f9DW7-227" style="edgeStyle=orthogonalEdgeStyle;rounded=0;orthogonalLoop=1;jettySize=auto;html=1;entryX=0.5;entryY=0;entryDx=0;entryDy=0;" edge="1" parent="ZNYp26jjRc72Ay9f9DW7-254" source="ZNYp26jjRc72Ay9f9DW7-208" target="ZNYp26jjRc72Ay9f9DW7-223">
          <mxGeometry relative="1" as="geometry">
            <Array as="points">
              <mxPoint x="240" y="70" />
              <mxPoint x="395" y="70" />
            </Array>
          </mxGeometry>
        </mxCell>
        <mxCell id="ZNYp26jjRc72Ay9f9DW7-230" style="edgeStyle=orthogonalEdgeStyle;rounded=0;orthogonalLoop=1;jettySize=auto;html=1;" edge="1" parent="ZNYp26jjRc72Ay9f9DW7-254" source="ZNYp26jjRc72Ay9f9DW7-228" target="ZNYp26jjRc72Ay9f9DW7-222">
          <mxGeometry relative="1" as="geometry" />
        </mxCell>
        <mxCell id="ZNYp26jjRc72Ay9f9DW7-228" value="Clean Up" style="rounded=0;whiteSpace=wrap;html=1;" vertex="1" parent="ZNYp26jjRc72Ay9f9DW7-254">
          <mxGeometry x="330" y="335" width="130" height="40" as="geometry" />
        </mxCell>
        <mxCell id="ZNYp26jjRc72Ay9f9DW7-241" style="edgeStyle=orthogonalEdgeStyle;rounded=0;orthogonalLoop=1;jettySize=auto;html=1;entryX=0.5;entryY=0;entryDx=0;entryDy=0;" edge="1" parent="ZNYp26jjRc72Ay9f9DW7-254" source="ZNYp26jjRc72Ay9f9DW7-231" target="ZNYp26jjRc72Ay9f9DW7-236">
          <mxGeometry relative="1" as="geometry">
            <Array as="points">
              <mxPoint x="395" y="520" />
              <mxPoint x="235" y="520" />
            </Array>
          </mxGeometry>
        </mxCell>
        <mxCell id="ZNYp26jjRc72Ay9f9DW7-231" value="Rewriting volumes from upgrade to production instance" style="rounded=0;whiteSpace=wrap;html=1;" vertex="1" parent="ZNYp26jjRc72Ay9f9DW7-254">
          <mxGeometry x="330" y="460" width="130" height="50" as="geometry" />
        </mxCell>
        <mxCell id="ZNYp26jjRc72Ay9f9DW7-244" style="edgeStyle=orthogonalEdgeStyle;rounded=0;orthogonalLoop=1;jettySize=auto;html=1;" edge="1" parent="ZNYp26jjRc72Ay9f9DW7-254" source="ZNYp26jjRc72Ay9f9DW7-233" target="ZNYp26jjRc72Ay9f9DW7-243">
          <mxGeometry relative="1" as="geometry" />
        </mxCell>
        <mxCell id="ZNYp26jjRc72Ay9f9DW7-233" value="Creating system aliases &lt;b&gt;(e.g. &lt;code data-end=&quot;209&quot; data-start=&quot;198&quot;&gt;moodle-up&lt;/code&gt;, &lt;code data-end=&quot;224&quot; data-start=&quot;211&quot;&gt;moodle-down&lt;/code&gt;)&lt;/b&gt;" style="rounded=0;whiteSpace=wrap;html=1;" vertex="1" parent="ZNYp26jjRc72Ay9f9DW7-254">
          <mxGeometry x="170" y="620" width="130" height="50" as="geometry" />
        </mxCell>
        <mxCell id="ZNYp26jjRc72Ay9f9DW7-242" style="edgeStyle=orthogonalEdgeStyle;rounded=0;orthogonalLoop=1;jettySize=auto;html=1;" edge="1" parent="ZNYp26jjRc72Ay9f9DW7-254" source="ZNYp26jjRc72Ay9f9DW7-236" target="ZNYp26jjRc72Ay9f9DW7-233">
          <mxGeometry relative="1" as="geometry" />
        </mxCell>
        <mxCell id="ZNYp26jjRc72Ay9f9DW7-245" value="No" style="edgeLabel;html=1;align=center;verticalAlign=middle;resizable=0;points=[];" vertex="1" connectable="0" parent="ZNYp26jjRc72Ay9f9DW7-242">
          <mxGeometry x="0.24" y="3" relative="1" as="geometry">
            <mxPoint as="offset" />
          </mxGeometry>
        </mxCell>
        <mxCell id="ZNYp26jjRc72Ay9f9DW7-247" style="edgeStyle=orthogonalEdgeStyle;rounded=0;orthogonalLoop=1;jettySize=auto;html=1;entryX=0.5;entryY=0;entryDx=0;entryDy=0;" edge="1" parent="ZNYp26jjRc72Ay9f9DW7-254">
          <mxGeometry relative="1" as="geometry">
            <mxPoint x="297" y="565" as="sourcePoint" />
            <mxPoint x="235" y="690" as="targetPoint" />
            <Array as="points">
              <mxPoint x="307" y="565" />
              <mxPoint x="307" y="680" />
              <mxPoint x="235" y="680" />
            </Array>
          </mxGeometry>
        </mxCell>
        <mxCell id="ZNYp26jjRc72Ay9f9DW7-248" value="Yes" style="edgeLabel;html=1;align=center;verticalAlign=middle;resizable=0;points=[];" vertex="1" connectable="0" parent="ZNYp26jjRc72Ay9f9DW7-247">
          <mxGeometry x="-0.4783" y="-2" relative="1" as="geometry">
            <mxPoint x="-5" y="-29" as="offset" />
          </mxGeometry>
        </mxCell>
        <mxCell id="ZNYp26jjRc72Ay9f9DW7-236" value="Alias Allready exists?" style="rhombus;whiteSpace=wrap;html=1;" vertex="1" parent="ZNYp26jjRc72Ay9f9DW7-254">
          <mxGeometry x="170" y="535" width="130" height="60" as="geometry" />
        </mxCell>
        <mxCell id="ZNYp26jjRc72Ay9f9DW7-243" value="End" style="rounded=1;whiteSpace=wrap;html=1;" vertex="1" parent="ZNYp26jjRc72Ay9f9DW7-254">
          <mxGeometry x="170" y="690" width="130" height="50" as="geometry" />
        </mxCell>
      </root>
    </mxGraphModel>
  </diagram>
</mxfile>
